<svg xmlns="http://www.w3.org/2000/svg" viewBox="0 0 200 200" fill="none">
  <!-- Fondo circular oscuro — identidad TrackFocus para redes sociales -->
  <circle cx="100" cy="100" r="100" fill="#1A1A2E"/>

  <!-- SÍMBOLO en blanco, escalado 2x y centrado en el círculo -->
  <!-- transform: centrar visual del símbolo en (100,100) -->
  <g transform="translate(36, 46) scale(2.0)">
    <path d="M 42.73 43.27 A 18 18 0 1 1 42.73 20.73"
          stroke="white" stroke-width="2.8" stroke-linecap="round" fill="none"/>
    <path d="M 38.49 38.49 A 12 12 0 1 1 38.49 25.51"
          stroke="white" stroke-width="2.8" stroke-linecap="round" fill="none"/>
    <path d="M 34.24 34.24 A 6 6 0 1 1 34.24 29.76"
          stroke="white" stroke-width="2.8" stroke-linecap="round" fill="none"/>
    <line x1="44.54" y1="20.00" x2="50.20" y2="16.00" stroke="white" stroke-width="2.3" stroke-linecap="round"/>
    <line x1="46.00" y1="18.50" x2="53.00" y2="15.50" stroke="white" stroke-width="2.3" stroke-linecap="round"/>
    <line x1="47.00" y1="17.00" x2="56.00" y2="16.50" stroke="white" stroke-width="2.3" stroke-linecap="round"/>
    <line x1="47.20" y1="16.00" x2="55.50" y2="11.50" stroke="white" stroke-width="2.3" stroke-linecap="round"/>
    <line x1="46.50" y1="14.50" x2="53.50" y2="8.00"  stroke="white" stroke-width="2.3" stroke-linecap="round"/>
    <line x1="44.80" y1="12.80" x2="50.50" y2="5.50"  stroke="white" stroke-width="2.3" stroke-linecap="round"/>
    <line x1="42.50" y1="11.50" x2="47.00" y2="3.50"  stroke="white" stroke-width="2.3" stroke-linecap="round"/>
  </g>
</svg>
