<?xml version="1.0" standalone="no"?>
<!DOCTYPE svg PUBLIC "-//W3C//DTD SVG 20010904//EN"
 "http://www.w3.org/TR/2001/REC-SVG-20010904/DTD/svg10.dtd">
<svg version="1.0" xmlns="http://www.w3.org/2000/svg"
 width="256.000000pt" height="256.000000pt" viewBox="0 0 256 256"
 preserveAspectRatio="xMidYMid meet">

<g transform="translate(0.000000,256.000000) scale(0.1,-0.1)"
fill="#1a1a2e" stroke="none">
<path d="M1432 2398 c-7 -19 -50 -206 -95 -415 -62 -297 -74 -388 -50 -410 51 -52 689 -184 735 -148 16 13 35 85 45 160 7 57 37 247 66 385 28 137 45 267 37 288 -10 24 -40 40 -71 40 -31 0 -101 14 -160 33 -122 40 -420 108 -465 108 -16 0 -35 -16 -42 -41z"/>
<path d="M1862 2242 c-102 -152 -178 -287 -170 -305 21 -54 430 -367 483 -368 26 0 47 10 47 21 0 12 40 83 90 160 298 452 276 411 227 458 -69 67 -438 310 -469 310 -14 0 -108 -122 -208 -276z"/>
<path d="M1642 2133 c-76 -150 -133 -289 -126 -308 7 -19 125 -90 266 -160 240 -119 251 -121 282 -78 57 78 253 535 243 566 -12 28 -452 249 -500 249 -14 0 -90 -123 -165 -269z"/>
<path d="M1163 2005 c-148 -17 -317 -43 -377 -57 -61 -14 -199 -40 -308 -62 -602 -117 -1513 -517 -2114 -930 -1345 -930 -2256 -2119 -2738 -3581 -218 -653 -318 -1298 -318 -2038 0 -1076 221 -2010 700 -2965 345 -691 805 -1293 1482 -1936 175 -169 587 -485 995 -767 270 -188 907 -524 1137 -603 59 -19 164 -60 232 -86 206 -83 630 -192 828 -216 102 -12 329 -40 505 -62 604 -72 1500 -52 1990 40 393 76 1008 248 1269 354 988 406 1655 846 2343 1548 473 485 870 1052 1188 1704 76 152 107 239 90 256 -31 31 -652 289 -709 294 -36 3 -71 -47 -159 -219 -211 -412 -445 -768 -722 -1102 -164 -197 -707 -712 -912 -866 -1123 -842 -2475 -1242 -3874 -1147 -356 24 -762 83 -1005 147 -777 204 -1348 450 -1943 843 -692 455 -1341 1137 -1776 1855 -429 715 -685 1475 -773 2313 -76 712 -27 1371 152 2069 287 1127 931 2161 1826 2931 211 183 681 532 759 566 19 9 90 50 154 88 676 408 1494 671 2311 749 97 9 190 17 202 19 76 12 83 43 83 412 0 204 -7 397 -14 427 -17 62 -81 64 -502 17z"/>
<path d="M1725 1953 c-45 -45 -504 -602 -610 -740 -35 -48 -76 -88 -88 -92 -10 -5 -130 67 -265 160 -154 146 -227 209 -206 221 48 23 107 43 181 58 18 3 112 28 210 55 97 27 344 99 548 158 204 59 469 134 589 170 119 36 234 72 258 81 61 22 43 76 -243 331 -424 274 -391 261 -464 157z"/>
<path d="M1895 1907 c-26 -30 -47 -61 -47 -67 0 -7 29 -19 65 -28 36 -9 65 -16 65 -15 0 30 -19 86 -35 110 -19 29 -15 29 -48 0z"/>
<path d="M1886 1838 c-229 -196 -322 -291 -331 -338 -7 -36 -9 -66 -7 -71 17 -14 306 220 509 417 196 187 246 265 169 265 -11 0 -163 -123 -340 -273z"/>
<path d="M1327 1857 c-2 -33 -10 -45 -16 -28 -19 45 -54 33 -54 -19 0 -59 -36 -62 -57 -7 -10 24 -23 31 -33 19 -10 -14 -107 -24 -218 -24 l-201 0 -17 -142 c-10 -78 -24 -203 -31 -277 l-14 -137 -168 0 c-178 0 -694 -59 -813 -94 -38 -10 -114 -26 -166 -36 -149 -26 -521 -149 -793 -265 -808 -346 -1588 -1007 -2128 -1809 -317 -474 -602 -1150 -718 -1709 -147 -715 -107 -1545 109 -2281 301 -1029 968 -1932 1920 -2608 424 -298 996 -560 1529 -701 1202 -313 2537 -126 3583 504 538 322 1106 843 1481 1366 256 355 543 904 657 1256 124 382 251 1011 251 1252 0 71 9 140 19 157 14 21 331 31 1325 33 1123 3 1311 7 1322 37 24 62 14 950 -9 1015 -21 57 -33 62 -114 50 -149 -23 -834 -130 -1059 -168 -116 -19 -453 -73 -747 -121 -293 -46 -725 -116 -961 -157 -236 -41 -472 -79 -527 -83 -58 -6 -102 -24 -102 -40 -2 -15 -2 -197 0 -405 4 -775 -166 -1409 -549 -2046 -572 -953 -1488 -1601 -2591 -1834 -223 -47 -327 -55 -767 -55 -436 2 -547 9 -770 54 -732 152 -1436 503 -1958 975 -204 184 -545 592 -677 811 -246 401 -398 772 -492 1215 -64 285 -69 345 -69 817 0 438 7 547 54 771 128 606 370 1137 763 1660 638 846 1626 1408 2691 1521 284 31 766 26 905 -8 73 -19 72 -26 161 784 19 171 47 403 60 517 14 117 21 229 17 250 -7 27 -12 19 -17 -19z"/>
<path d="M2164 1847 c-132 -62 -249 -126 -257 -140 -24 -38 177 -471 227 -486 21 -7 107 17 190 54 83 40 189 88 240 107 104 45 133 97 80 154 -21 24 -76 123 -121 222 -45 100 -90 185 -102 192 -10 6 -128 -40 -257 -103z"/>
<path d="M1406 1849 c-19 -33 -52 -118 -78 -190 -24 -71 -59 -168 -81 -213 -42 -143 -199 -595 -225 -643 -41 -74 5 -112 209 -173 111 -36 206 -60 209 -54 12 12 97 206 213 492 54 137 135 320 176 410 40 89 80 192 88 233 9 41 26 78 36 85 12 7 21 33 21 59 0 38 -7 43 -45 21 -66 -33 -104 -28 -88 12 9 24 -2 36 -35 36 -26 0 -73 17 -104 38 -30 22 -69 31 -83 21 -14 -7 -24 7 -24 36 0 36 -12 47 -33 40 -20 -6 -38 -2 -45 14z"/>
<path d="M1844 1789 c-21 -14 -24 -24 -8 -24 14 0 36 12 43 24 19 28 9 28 -35 0z"/>
<path d="M536 1825 c-651 -957 -1118 -1975 -1347 -2968 -107 -466 -130 -580 -157 -782 -14 -112 -38 -275 -52 -367 0 -113 -8 -756 0 -1088 73 -822 219 -1416 456 -1880 282 -641 675 -1240 1118 -1683 327 -324 391 -410 589 -791 322 -386 792 -852 1080 -1068 85 -64 214 -166 287 -226 73 -59 218 -164 320 -237 104 -72 220 -161 263 -200 45 -43 90 -64 112 -57 43 17 496 700 498 752 2 19 -92 98 -214 178 -553 367 -1007 765 -1508 1317 -526 581 -798 971 -1237 1762 -295 533 -555 1306 -689 2049 -128 715 -134 1722 -12 2502 57 369 184 949 231 1068 10 26 45 123 74 212 85 267 343 846 503 1120 239 415 471 787 547 874 83 95 47 144 -244 332 -424 273 -391 260 -466 157z"/>
<path d="M1834 1778 c-26 -31 -24 -33 9 -21 21 7 38 24 38 36 0 30 -14 26 -47 -15z"/>
<path d="M2048 1598 c-1308 -664 -1373 -694 -1394 -662 -10 19 -90 164 -178 323 -88 160 -180 253 -207 257 -25 4 -114 -8 -195 -28 -81 -19 -253 -56 -378 -83 -235 -54 -457 -109 -618 -146 -43 -10 -86 -17 -95 -14 -22 6 188 -389 227 -428 8 -9 80 21 163 69 83 45 256 138 380 205 130 69 464 239 715 368 250 130 635 327 857 441 221 114 555 285 745 377 347 143 391 155 556 206 113 34 205 71 205 104 0 17 -235 693 -282 812 -28 76 -29 76 -169 -1z"/>
<path d="M2180 1510 c-134 -31 -252 -62 -258 -69 -10 -12 12 -135 43 -281 l26 -265 109 4 c59 1 161 19 223 38 61 19 142 42 180 50 57 14 64 26 64 104 0 83 -21 199 -73 390 -26 101 -14 102 -348 28z"/>
</g>
</svg>
