<?xml version="1.0" standalone="no"?>
<!DOCTYPE svg PUBLIC "-//W3C//DTD SVG 20010904//EN"
 "http://www.w3.org/TR/2001/REC-SVG-20010904/DTD/svg10.dtd">
<svg version="1.0" xmlns="http://www.w3.org/2000/svg"
 width="1080.000000pt" height="1079.000000pt" viewBox="0 0 1080.000000 1079.000000"
 preserveAspectRatio="xMidYMid meet">

<g transform="translate(0.000000,1079.000000) scale(0.100000,-0.100000)"
fill="#000000" stroke="none">
<path d="M6054 9635 c-3 -8 -21 -87 -39 -177 -26 -126 -31 -166 -21 -175 22
-23 293 -78 311 -63 7 6 15 36 19 68 3 31 16 105 28 163 12 58 19 113 15 122
-4 10 -17 17 -30 17 -13 0 -43 6 -68 14 -52 17 -178 46 -197 46 -7 0 -15 -7
-18 -15z"/>
<path d="M7868 9474 c-43 -64 -75 -121 -72 -129 9 -23 182 -155 204 -155 11 0
20 4 20 9 0 5 17 35 38 67 126 191 117 174 96 194 -29 28 -185 130 -198 130
-6 0 -46 -52 -88 -116z"/>
<path d="M6926 9016 c-32 -63 -56 -122 -53 -130 3 -8 53 -38 112 -67 101 -50
106 -51 119 -33 24 33 107 226 103 239 -5 12 -191 105 -211 105 -6 0 -38 -52
-70 -114z"/>
<path d="M4912 8445 c-62 -7 -134 -18 -160 -24 -26 -5 -84 -17 -130 -26 -254
-49 -638 -218 -892 -393 -568 -393 -952 -895 -1156 -1512 -92 -276 -134 -548
-134 -860 0 -454 93 -848 295 -1250 146 -292 340 -545 626 -816 74 -71 247
-204 419 -323 114 -79 383 -221 480 -254 25 -8 69 -25 98 -36 87 -35 266 -81
349 -91 43 -5 139 -17 213 -26 255 -30 633 -22 840 17 166 32 426 105 536 150
417 171 698 357 988 653 200 205 367 444 502 718 32 64 45 101 38 108 -13 13
-275 122 -299 124 -15 1 -30 -20 -67 -92 -89 -174 -188 -324 -305 -465 -69
-83 -298 -300 -385 -365 -474 -355 -1044 -524 -1634 -484 -150 10 -322 35
-424 62 -328 86 -569 190 -820 356 -292 192 -566 479 -749 782 -181 301 -289
622 -326 975 -32 300 -11 578 64 874 121 476 393 912 771 1237 89 77 287 224
320 239 8 4 38 21 65 37 285 172 630 283 975 316 41 4 80 7 85 8 32 5 35 18
35 174 0 86 -3 167 -6 180 -7 26 -34 27 -212 7z"/>
<path d="M7284 8303 c-19 -19 -213 -254 -257 -312 -15 -20 -32 -37 -37 -39 -4
-2 -55 28 -112 65 -146 96 -148 97 -164 76 -8 -10 -42 -65 -76 -123 -66 -113
-409 -667 -489 -790 -38 -58 -46 -77 -37 -88 7 -7 46 -33 87 -58 l76 -44 30
33 c34 38 139 168 335 417 36 45 90 112 120 149 30 36 67 82 82 103 15 20 34
42 41 50 20 20 168 216 207 273 18 28 47 66 64 86 17 20 53 65 81 100 27 35
56 70 62 77 12 13 18 42 9 42 -3 0 -12 -8 -22 -17z"/>
<path d="M8260 8135 c-53 -43 -71 -65 -53 -65 12 1 130 109 118 110 -6 0 -35
-20 -65 -45z"/>
<path d="M7957 7945 c-97 -83 -136 -123 -140 -143 -3 -15 -4 -28 -3 -30 7 -6
129 93 215 176 83 79 104 112 71 112 -5 0 -69 -52 -143 -115z"/>
<path d="M5600 7930 c-1 -14 -4 -19 -7 -12 -8 19 -23 14 -23 -8 0 -25 -15 -26
-24 -3 -4 10 -10 13 -14 8 -4 -6 -45 -10 -92 -10 l-85 0 -7 -60 c-4 -33 -10
-86 -13 -117 l-6 -58 -71 0 c-75 0 -293 -25 -343 -40 -16 -4 -48 -11 -70 -15
-63 -11 -220 -63 -335 -112 -341 -146 -670 -425 -898 -763 -134 -200 -254
-485 -303 -720 -62 -302 -45 -653 46 -962 127 -434 408 -815 810 -1099 179
-126 420 -236 645 -295 507 -132 1070 -53 1513 213 227 136 466 356 624 576
108 150 229 381 277 530 52 161 106 427 106 528 0 30 4 59 8 66 6 9 140 13
559 14 474 1 553 3 557 16 10 26 6 401 -4 428 -9 24 -14 26 -48 21 -63 -10
-352 -55 -447 -71 -49 -8 -191 -31 -315 -51 -124 -19 -306 -49 -405 -66 -99
-17 -199 -33 -222 -35 -24 -3 -43 -10 -43 -17 -1 -6 -1 -83 0 -171 2 -327 -70
-595 -232 -864 -241 -402 -627 -675 -1094 -773 -94 -20 -138 -23 -324 -23
-184 1 -231 4 -325 23 -309 64 -606 212 -827 412 -86 77 -230 249 -286 342
-104 169 -168 326 -208 513 -27 120 -29 146 -29 345 0 185 3 230 23 325 54
256 156 480 322 700 269 357 686 593 1135 642 120 13 323 11 382 -3 31 -8 30
-11 68 331 8 72 20 170 25 218 6 49 9 96 7 105 -3 11 -5 8 -7 -8z"/>
<path d="M9134 7850 c-56 -26 -105 -53 -108 -59 -10 -16 75 -199 96 -206 9 -3
45 7 80 23 35 17 80 37 101 45 44 19 56 41 34 65 -9 10 -32 52 -51 94 -19 42
-38 78 -43 81 -4 2 -54 -17 -109 -43z"/>
<path d="M5930 7800 c-8 -14 -22 -50 -33 -80 -10 -30 -25 -71 -34 -90 -9 -19
-22 -55 -29 -80 -17 -60 -84 -251 -95 -272 -17 -31 2 -47 88 -73 47 -15 87
-25 88 -23 5 5 41 87 90 208 23 58 57 135 74 172 17 37 34 81 37 98 4 17 11
33 15 36 5 3 9 14 9 25 0 16 -3 18 -19 9 -28 -14 -44 -12 -37 5 4 10 -1 15
-15 15 -11 0 -31 7 -44 16 -13 9 -29 13 -35 9 -6 -3 -10 3 -10 15 0 15 -5 20
-14 17 -8 -3 -16 -1 -19 6 -2 7 -10 1 -17 -13z"/>
<path d="M7780 7750 c-9 -6 -10 -10 -3 -10 6 0 15 5 18 10 8 12 4 12 -15 0z"/>
<path d="M2264 7703 c-275 -404 -471 -834 -568 -1253 -45 -197 -55 -245 -66
-330 -6 -47 -16 -116 -22 -155 -7 -42 -11 -188 -11 -365 0 -248 3 -319 22
-445 31 -219 57 -345 115 -555 85 -312 285 -739 473 -1012 113 -165 165 -234
248 -333 136 -163 334 -359 455 -450 36 -27 90 -70 121 -95 31 -25 92 -69 135
-99 44 -30 93 -68 111 -84 19 -18 38 -27 47 -24 18 7 209 295 210 317 1 8 -39
41 -90 75 -233 155 -425 323 -635 556 -222 245 -337 410 -522 744 -124 224
-234 551 -291 865 -54 297 -56 726 -5 1055 24 156 78 402 98 450 5 11 19 52
31 90 36 113 145 358 212 473 101 176 199 332 231 369 35 40 20 61 -103 140
-179 115 -165 110 -196 66z"/>
<path d="M7740 7715 c-11 -13 -10 -14 4 -9 9 3 16 10 16 15 0 13 -6 11 -20 -6z"/>
<path d="M8625 7340 c-552 -280 -579 -293 -588 -279 -4 8 -38 69 -75 136 -37
67 -76 134 -87 149 l-20 27 -195 -135 c-107 -74 -264 -184 -348 -244 -85 -60
-202 -143 -261 -184 -280 -195 -350 -246 -354 -255 -4 -8 79 -164 96 -181 3
-4 34 9 69 29 35 19 108 58 163 87 55 29 120 64 145 78 25 13 115 60 200 104
85 44 196 102 245 128 50 26 185 96 300 155 116 59 269 138 340 175 72 37 234
120 360 184 127 65 234 121 240 127 24 24 -36 -2 -230 -101z"/>
<path d="M6168 6748 c-96 -101 -194 -203 -217 -228 -23 -25 -280 -284 -571
-576 -292 -292 -530 -535 -530 -541 0 -14 207 -217 226 -221 9 -2 95 78 217
202 111 113 446 451 745 751 298 300 542 551 542 559 0 15 -213 236 -228 236
-4 0 -87 -82 -184 -182z"/>
<path d="M8460 6858 c-25 -11 -93 -40 -152 -63 -58 -24 -159 -66 -225 -93 -65
-28 -219 -91 -343 -142 -124 -51 -261 -107 -306 -126 -45 -19 -84 -34 -89 -34
-4 0 -21 -6 -38 -14 -51 -23 -177 -76 -242 -101 -93 -36 -195 -84 -195 -93 1
-22 59 -177 69 -180 13 -4 152 37 166 50 5 4 19 8 30 8 12 0 41 6 66 14 24 8
85 26 134 41 50 14 133 39 185 55 216 65 448 133 485 141 22 6 83 23 135 39
120 36 200 59 373 106 75 20 137 40 137 44 0 7 -99 293 -119 343 -12 32 -12
32 -71 5z"/>
<path d="M9172 6435 c-57 -13 -106 -26 -109 -29 -4 -4 5 -57 18 -119 l26 -112
46 2 c25 0 68 8 94 16 26 8 60 18 76 21 24 6 27 11 27 44 0 35 -9 84 -31 165
-11 43 -6 43 -147 12z"/>
</g>
</svg>
